<svg xmlns="http://www.w3.org/2000/svg" width="18.988" height="21.7" viewBox="0 0 18.988 21.7">
  <path id="Icon_awesome-bell" data-name="Icon awesome-bell" d="M9.494,21.7a2.712,2.712,0,0,0,2.711-2.713H6.783A2.712,2.712,0,0,0,9.494,21.7Zm9.129-6.345c-.819-.88-2.351-2.2-2.351-6.539A6.693,6.693,0,0,0,10.849,2.24V1.356a1.355,1.355,0,1,0-2.711,0V2.24A6.693,6.693,0,0,0,2.716,8.816c0,4.336-1.532,5.659-2.351,6.539a1.324,1.324,0,0,0-.365.92A1.357,1.357,0,0,0,1.36,17.632H17.627a1.357,1.357,0,0,0,1.361-1.356A1.323,1.323,0,0,0,18.623,15.355Z" transform="translate(0)"/>
</svg>
