<svg xmlns="http://www.w3.org/2000/svg" width="18" height="20" viewBox="0 0 18 20">
  <path id="Icon_awesome-calendar-day" data-name="Icon awesome-calendar-day" d="M0,18.125A1.9,1.9,0,0,0,1.929,20H16.071A1.9,1.9,0,0,0,18,18.125V7.5H0Zm2.571-7.5A.636.636,0,0,1,3.214,10H7.071a.636.636,0,0,1,.643.625v3.75A.636.636,0,0,1,7.071,15H3.214a.636.636,0,0,1-.643-.625ZM16.071,2.5H14.143V.625A.636.636,0,0,0,13.5,0H12.214a.636.636,0,0,0-.643.625V2.5H6.429V.625A.636.636,0,0,0,5.786,0H4.5a.636.636,0,0,0-.643.625V2.5H1.929A1.9,1.9,0,0,0,0,4.375V6.25H18V4.375A1.9,1.9,0,0,0,16.071,2.5Z" fill="#dd5da0"/>
</svg>
