<svg xmlns="http://www.w3.org/2000/svg" width="22.357" height="21.262" viewBox="0 0 22.357 21.262">
  <g id="그룹_2" data-name="그룹 2" transform="translate(-93.044 -187.477) rotate(-13)">
    <g id="그룹_1" data-name="그룹 1" transform="translate(46.352 207.727)">
      <path id="패스_1" data-name="패스 1" d="M465.852,224.012a1.854,1.854,0,0,1-3.664.048,2.485,2.485,0,0,1-.037-.436q0-6.96,0-13.919a1.862,1.862,0,0,1,3.7-.387c.039.063-.012.143.035.2v14.286C465.84,223.87,465.891,223.949,465.852,224.012Z" transform="translate(-445.887 -207.727)" fill="#72a0f8"/>
      <path id="패스_2" data-name="패스 2" d="M46.352,335.8a3.711,3.711,0,0,1,.377-.963,2.435,2.435,0,0,1,1.989-1.181c.822-.042,1.646-.048,2.469-.076.122,0,.149.028.149.148q-.006,3.667,0,7.334c0,.114-.018.155-.146.15-.849-.032-1.7-.042-2.546-.082a2.5,2.5,0,0,1-2.251-2.036c-.007-.036,0-.08-.04-.1Z" transform="translate(-46.352 -328.456)" fill="#72a0f8"/>
      <path id="패스_3" data-name="패스 3" d="M557.056,247.767a.222.222,0,0,1-.035-.2.041.041,0,0,0,.035,0Z" transform="translate(-537.056 -246.017)" fill="#72a0f8"/>
      <path id="패스_4" data-name="패스 4" d="M557.021,610.748a.222.222,0,0,1,.035-.2v.194l-.018,0Z" transform="translate(-537.056 -594.424)" fill="#72a0f8"/>
      <path id="패스_5" data-name="패스 5" d="M214.917,279.147V291.43a.39.39,0,0,1-.214-.077,20.4,20.4,0,0,0-5.525-1.693,27.5,27.5,0,0,0-2.84-.315c-.113-.007-.136-.046-.136-.154q0-3.886,0-7.772c0-.129.04-.148.152-.157a25.774,25.774,0,0,0,7.473-1.651C214.187,279.467,214.542,279.307,214.917,279.147Z" transform="translate(-199.935 -276.367)" fill="#72a0f8"/>
      <path id="패스_6" data-name="패스 6" d="M134.466,560.386c1.068.02,2.122.07,3.175.143.349.024.7.065,1.045.09.1.007.125.042.139.137.1.666.208,1.33.3,2a1.236,1.236,0,0,1-1.286,1.459c-.214,0-.428,0-.641,0a1.167,1.167,0,0,1-1.063-.633c-.562-1.04-1.109-2.088-1.661-3.133A.232.232,0,0,1,134.466,560.386Z" transform="translate(-131.018 -546.213)" fill="#72a0f8"/>
    </g>
  </g>
</svg>
