<svg xmlns="http://www.w3.org/2000/svg" width="23.743" height="27.135" viewBox="0 0 23.743 27.135"><defs><style>.a{fill:#64a2ff;}.b{fill:#fff;}</style></defs><g transform="translate(-32.399 -2.576)"><path class="a" d="M27.394,5.32H19.762a3.392,3.392,0,0,0-6.784,0H5.347a.848.848,0,0,0-.848.848V28.215a.848.848,0,0,0,.848.848H27.394a.848.848,0,0,0,.848-.848V6.168a.848.848,0,0,0-.848-.848ZM16.37,3.624a1.7,1.7,0,1,1-1.7,1.7A1.7,1.7,0,0,1,16.37,3.624ZM26.546,27.367H6.195v.848l3.392-.265v-.274a.848.848,0,0,0,.848.848H22.306a.848.848,0,0,0,.848-.848v.539h3.392v-.848Z" transform="translate(27.901 0.648)"/><path class="b" d="M4.5,16.861H16.494V15.276H4.5Zm0,4.579H16.494V19.855H4.5Zm0-8.967H16.494V10.887H4.5Z" transform="translate(33.774 3.128)"/></g></svg>